<?xml version="1.0" standalone="no"?>
<!DOCTYPE svg PUBLIC "-//W3C//DTD SVG 20010904//EN"
 "http://www.w3.org/TR/2001/REC-SVG-20010904/DTD/svg10.dtd">
<svg version="1.0" xmlns="http://www.w3.org/2000/svg"
 width="60.000000pt" height="60.000000pt" viewBox="0 0 60.000000 60.000000"
 preserveAspectRatio="xMidYMid meet">

<g transform="translate(0.000000,60.000000) scale(0.100000,-0.100000)"
fill="#000000" stroke="none">
<path d="M264 528 c-4 -5 -1 -15 5 -21 12 -12 16 -107 4 -107 -15 0 -63 55
-63 72 0 28 -26 32 -50 8 -24 -24 -20 -50 7 -50 17 0 73 -47 73 -62 0 -12 -94
-10 -107 3 -17 17 -31 2 -29 -33 2 -32 19 -48 31 -29 7 13 105 15 105 3 0 -15
-56 -62 -73 -62 -27 0 -31 -26 -7 -50 24 -24 50 -20 50 8 0 17 48 72 63 72 12
0 8 -95 -5 -108 -8 -8 -8 -15 0 -24 6 -7 12 -34 14 -58 2 -32 7 -45 18 -45 11
0 16 13 18 45 2 24 8 51 14 58 8 9 8 16 0 24 -13 13 -16 108 -4 108 15 0 62
-56 62 -73 0 -27 26 -31 50 -7 24 24 20 50 -7 50 -17 0 -73 47 -73 62 0 12 98
10 105 -3 12 -19 29 -3 31 29 2 35 -12 50 -29 33 -13 -13 -107 -15 -107 -3 0
15 56 62 73 62 27 0 31 26 7 50 -24 24 -50 20 -50 -8 0 -17 -48 -72 -63 -72
-11 0 -8 98 4 105 5 4 8 12 6 18 -4 14 -65 18 -73 5z m56 -188 c0 -13 -7 -20
-20 -20 -13 0 -20 7 -20 20 0 13 7 20 20 20 13 0 20 -7 20 -20z"/>
<path d="M224 489 c-10 -17 13 -36 27 -22 12 12 4 33 -11 33 -5 0 -12 -5 -16
-11z"/>
<path d="M344 489 c-10 -17 13 -36 27 -22 12 12 4 33 -11 33 -5 0 -12 -5 -16
-11z"/>
<path d="M144 409 c-10 -17 13 -36 27 -22 12 12 4 33 -11 33 -5 0 -12 -5 -16
-11z"/>
<path d="M424 409 c-10 -17 13 -36 27 -22 12 12 4 33 -11 33 -5 0 -12 -5 -16
-11z"/>
<path d="M144 289 c-10 -17 13 -36 27 -22 12 12 4 33 -11 33 -5 0 -12 -5 -16
-11z"/>
<path d="M424 289 c-10 -17 13 -36 27 -22 12 12 4 33 -11 33 -5 0 -12 -5 -16
-11z"/>
<path d="M224 209 c-10 -17 13 -36 27 -22 12 12 4 33 -11 33 -5 0 -12 -5 -16
-11z"/>
<path d="M344 209 c-10 -17 13 -36 27 -22 12 12 4 33 -11 33 -5 0 -12 -5 -16
-11z"/>
</g>
</svg>
