<?xml version="1.0" standalone="no"?>
<!DOCTYPE svg PUBLIC "-//W3C//DTD SVG 20010904//EN"
 "http://www.w3.org/TR/2001/REC-SVG-20010904/DTD/svg10.dtd">
<svg version="1.0" xmlns="http://www.w3.org/2000/svg"
 width="60.000000pt" height="60.000000pt" viewBox="0 0 60.000000 60.000000"
 preserveAspectRatio="xMidYMid meet">

<g transform="translate(0.000000,60.000000) scale(0.100000,-0.100000)"
fill="#000000" stroke="none">
<path d="M264 533 c-20 -25 -23 -26 -53 -14 -36 16 -41 12 -56 -32 -7 -23 -19
-35 -42 -42 -44 -15 -48 -20 -33 -56 13 -30 12 -33 -13 -55 -34 -29 -34 -39 0
-68 25 -22 26 -25 13 -55 -15 -36 -11 -41 33 -56 23 -7 35 -19 42 -42 15 -44
20 -48 56 -33 30 13 33 12 55 -13 29 -34 39 -34 68 0 22 25 25 26 55 13 36
-15 41 -11 56 33 7 23 19 35 42 42 44 15 48 20 33 56 -13 30 -12 33 13 55 34
29 34 39 0 68 -25 22 -26 25 -13 55 15 36 11 41 -33 56 -23 7 -35 19 -42 42
-15 44 -20 48 -56 33 -30 -13 -33 -12 -55 13 -28 33 -43 33 -70 0z m-66 -211
c3 -9 -3 -11 -22 -6 -16 4 -26 2 -26 -4 0 -6 10 -12 23 -14 16 -2 22 -10 22
-28 0 -22 -4 -25 -34 -25 -19 0 -36 6 -38 12 -3 9 4 11 28 6 23 -4 30 -3 25 5
-4 7 -13 12 -20 12 -20 0 -39 27 -32 46 7 19 67 16 74 -4z m94 -32 c14 -42 14
-50 2 -50 -8 0 -14 5 -14 10 0 6 -9 10 -20 10 -11 0 -20 -4 -20 -10 0 -5 -6
-10 -14 -10 -12 0 -12 8 2 50 10 33 21 50 32 50 11 0 22 -17 32 -50z m58 10
c0 -33 3 -40 20 -40 11 0 20 -4 20 -10 0 -5 -16 -10 -35 -10 l-35 0 0 50 c0
38 4 50 15 50 11 0 15 -11 15 -40z m120 30 c0 -5 -9 -10 -20 -10 -11 0 -20 -4
-20 -10 0 -5 9 -10 20 -10 11 0 20 -4 20 -10 0 -5 -9 -10 -20 -10 -11 0 -20
-4 -20 -10 0 -5 9 -10 20 -10 11 0 20 -4 20 -10 0 -5 -16 -10 -35 -10 l-35 0
0 50 0 50 35 0 c19 0 35 -4 35 -10z"/>
<path d="M250 290 c0 -5 5 -10 10 -10 6 0 10 5 10 10 0 6 -4 10 -10 10 -5 0
-10 -4 -10 -10z"/>
</g>
</svg>
