<?xml version="1.0" standalone="no"?>
<!DOCTYPE svg PUBLIC "-//W3C//DTD SVG 20010904//EN"
 "http://www.w3.org/TR/2001/REC-SVG-20010904/DTD/svg10.dtd">
<svg version="1.0" xmlns="http://www.w3.org/2000/svg"
 width="60.000000pt" height="60.000000pt" viewBox="0 0 60.000000 60.000000"
 preserveAspectRatio="xMidYMid meet">

<g transform="translate(0.000000,60.000000) scale(0.100000,-0.100000)"
fill="#000000" stroke="none">
<path d="M219 501 c-35 -35 -39 -44 -39 -91 0 -47 4 -56 39 -91 33 -33 45 -39
81 -39 36 0 48 6 81 39 35 35 39 44 39 91 0 47 -4 56 -39 91 -33 33 -45 39
-81 39 -36 0 -48 -6 -81 -39z"/>
<path d="M215 207 c-111 -37 -157 -81 -123 -115 17 -17 399 -17 416 0 64 64
-170 155 -293 115z"/>
</g>
</svg>
