<svg width="102" height="47" viewBox="0 0 102 47" fill="none" xmlns="http://www.w3.org/2000/svg">
<path d="M10.1611 28V27.74L10.6811 27.558C11.2704 27.3673 11.5651 26.8733 11.5651 26.076V12.764C11.5651 12.4173 11.5218 12.14 11.4351 11.932C11.3658 11.724 11.1664 11.5507 10.8371 11.412L10.1611 11.1V10.84H15.1791L19.9891 23.424L24.5131 10.84H29.6351V11.1L29.2191 11.256C28.8898 11.3773 28.6644 11.5507 28.5431 11.776C28.4218 11.984 28.3611 12.2613 28.3611 12.608V26.206C28.3611 26.5527 28.4044 26.8213 28.4911 27.012C28.5778 27.2027 28.7858 27.3673 29.1151 27.506L29.6351 27.74V28H23.1611V27.74L23.7071 27.506C24.0364 27.3673 24.2444 27.2027 24.3311 27.012C24.4178 26.8213 24.4611 26.5527 24.4611 26.206V20.356L24.5131 12.92L19.0791 28H17.7791L12.1111 13.102L12.1891 19.576V26.128C12.1891 26.5093 12.2411 26.8213 12.3451 27.064C12.4664 27.2893 12.6918 27.454 13.0211 27.558L13.5931 27.74V28H10.1611ZM36.62 28.39C35.3026 28.39 34.1586 28.1213 33.188 27.584C32.2173 27.0293 31.4633 26.2493 30.926 25.244C30.406 24.2387 30.146 23.06 30.146 21.708C30.146 20.356 30.4233 19.186 30.978 18.198C31.55 17.21 32.3213 16.4473 33.292 15.91C34.28 15.3727 35.3893 15.104 36.62 15.104C37.8506 15.104 38.9513 15.3727 39.922 15.91C40.8926 16.43 41.6553 17.184 42.21 18.172C42.782 19.16 43.068 20.3387 43.068 21.708C43.068 23.0773 42.7993 24.2647 42.262 25.27C41.742 26.258 40.9966 27.0293 40.026 27.584C39.0726 28.1213 37.9373 28.39 36.62 28.39ZM36.62 27.87C37.2266 27.87 37.712 27.6967 38.076 27.35C38.44 27.0033 38.7 26.388 38.856 25.504C39.0293 24.62 39.116 23.372 39.116 21.76C39.116 20.1307 39.0293 18.874 38.856 17.99C38.7 17.106 38.44 16.4907 38.076 16.144C37.712 15.7973 37.2266 15.624 36.62 15.624C36.0133 15.624 35.5193 15.7973 35.138 16.144C34.774 16.4907 34.5053 17.106 34.332 17.99C34.176 18.874 34.098 20.1307 34.098 21.76C34.098 23.372 34.176 24.62 34.332 25.504C34.5053 26.388 34.774 27.0033 35.138 27.35C35.5193 27.6967 36.0133 27.87 36.62 27.87ZM49.8743 28.39C48.8516 28.39 47.933 28.1647 47.1183 27.714C46.3036 27.246 45.6536 26.5353 45.1683 25.582C44.7003 24.6113 44.4663 23.372 44.4663 21.864C44.4663 20.3387 44.735 19.082 45.2723 18.094C45.8096 17.0887 46.5203 16.3433 47.4043 15.858C48.2883 15.3553 49.2503 15.104 50.2903 15.104C50.897 15.104 51.4776 15.1647 52.0323 15.286C52.587 15.4073 53.081 15.5893 53.5143 15.832V12.452C53.5143 12.088 53.4536 11.8193 53.3323 11.646C53.2283 11.4727 52.9943 11.3513 52.6303 11.282L52.1363 11.178V10.918L56.8683 9.774L57.1543 10.008L57.0503 13.648V26.362C57.0503 26.7087 57.111 26.9947 57.2323 27.22C57.3536 27.428 57.579 27.5753 57.9083 27.662L58.1423 27.74V28L53.6963 28.286L53.4623 27.35C52.9943 27.662 52.457 27.9133 51.8503 28.104C51.261 28.2947 50.6023 28.39 49.8743 28.39ZM51.3823 27.428C52.1103 27.428 52.7776 27.2113 53.3843 26.778V16.456C52.743 16.04 52.0843 15.832 51.4083 15.832C50.5763 15.832 49.8656 16.3173 49.2763 17.288C48.687 18.2413 48.3923 19.7493 48.3923 21.812C48.3923 23.8747 48.6696 25.3307 49.2243 26.18C49.779 27.012 50.4983 27.428 51.3823 27.428ZM65.818 15.104C66.9446 15.104 67.9066 15.338 68.704 15.806C69.5013 16.2567 70.108 16.8807 70.524 17.678C70.9573 18.458 71.174 19.3507 71.174 20.356C71.174 20.5467 71.1653 20.746 71.148 20.954C71.1306 21.1447 71.096 21.318 71.044 21.474H63.296C63.3133 23.346 63.6426 24.698 64.284 25.53C64.9426 26.3447 65.9133 26.752 67.196 26.752C68.0626 26.752 68.7646 26.6133 69.302 26.336C69.8393 26.0587 70.342 25.6513 70.81 25.114L71.07 25.348C70.5326 26.3013 69.8133 27.0467 68.912 27.584C68.028 28.1213 66.962 28.39 65.714 28.39C64.4833 28.39 63.3913 28.13 62.438 27.61C61.4846 27.0727 60.7393 26.31 60.202 25.322C59.6646 24.334 59.396 23.1553 59.396 21.786C59.396 20.3647 59.708 19.16 60.332 18.172C60.956 17.1667 61.7533 16.404 62.724 15.884C63.712 15.364 64.7433 15.104 65.818 15.104ZM65.74 15.624C65.2373 15.624 64.804 15.78 64.44 16.092C64.0933 16.3867 63.816 16.924 63.608 17.704C63.4173 18.4667 63.3133 19.55 63.296 20.954H67.742C67.9153 19.0647 67.846 17.704 67.534 16.872C67.222 16.04 66.624 15.624 65.74 15.624ZM72.4697 28V27.74L72.8597 27.636C73.2064 27.532 73.4404 27.376 73.5617 27.168C73.7004 26.96 73.7697 26.6913 73.7697 26.362V18.224C73.7697 17.8427 73.7004 17.5653 73.5617 17.392C73.4404 17.2013 73.2064 17.0713 72.8597 17.002L72.4697 16.898V16.638L76.9417 15.13L77.2017 15.39L77.4357 17.626V17.834C77.6784 17.3487 77.9904 16.9067 78.3717 16.508C78.7704 16.092 79.2037 15.754 79.6717 15.494C80.157 15.234 80.6337 15.104 81.1017 15.104C81.7604 15.104 82.263 15.286 82.6097 15.65C82.9564 16.014 83.1297 16.4733 83.1297 17.028C83.1297 17.6173 82.9564 18.0767 82.6097 18.406C82.2804 18.718 81.8817 18.874 81.4137 18.874C80.6857 18.874 80.0444 18.51 79.4897 17.782L79.4377 17.73C79.2644 17.4873 79.065 17.3573 78.8397 17.34C78.6144 17.3053 78.4064 17.4093 78.2157 17.652C78.0424 17.808 77.895 17.9987 77.7737 18.224C77.6697 18.432 77.5657 18.6747 77.4617 18.952V26.206C77.4617 26.8993 77.765 27.3327 78.3717 27.506L79.2037 27.74V28H72.4697ZM83.9463 28V27.74L84.3103 27.636C84.9169 27.4627 85.2203 27.038 85.2203 26.362V18.224C85.2203 17.8427 85.1596 17.5653 85.0383 17.392C84.9169 17.2013 84.6829 17.0713 84.3363 17.002L83.9463 16.898V16.638L88.3923 15.13L88.6523 15.39L88.8603 16.95C89.4669 16.4127 90.1516 15.9707 90.9143 15.624C91.6769 15.2773 92.4309 15.104 93.1763 15.104C94.3203 15.104 95.1956 15.416 95.8023 16.04C96.4263 16.664 96.7383 17.6173 96.7383 18.9V26.388C96.7383 27.064 97.0676 27.4887 97.7263 27.662L97.9603 27.74V28H91.8243V27.74L92.1623 27.636C92.7689 27.4453 93.0723 27.0207 93.0723 26.362V18.068C93.0723 16.9587 92.5176 16.404 91.4083 16.404C90.6456 16.404 89.8136 16.7853 88.9123 17.548V26.388C88.9123 27.064 89.2156 27.4887 89.8223 27.662L90.0563 27.74V28H83.9463Z" fill="black"/>
<path d="M12.8755 38.1529L14.5688 32.1998H15.3892L14.9146 34.5142L13.0923 40.731H12.2778L12.8755 38.1529ZM11.1235 32.1998L12.4712 38.0357L12.8755 40.731H12.0669L9.99854 32.1998H11.1235ZM17.5806 38.0298L18.8989 32.1998H20.0298L17.9673 40.731H17.1587L17.5806 38.0298ZM15.5122 32.1998L17.1587 38.1529L17.7563 40.731H16.9419L15.1841 34.5142L14.7036 32.1998H15.5122ZM20.645 37.6314V37.4966C20.645 37.0396 20.7114 36.6158 20.8442 36.2252C20.9771 35.8306 21.1685 35.4888 21.4185 35.1998C21.6685 34.9068 21.9712 34.6802 22.3267 34.5201C22.6821 34.356 23.0806 34.274 23.522 34.274C23.9673 34.274 24.3677 34.356 24.7231 34.5201C25.0825 34.6802 25.3872 34.9068 25.6372 35.1998C25.8911 35.4888 26.0845 35.8306 26.2173 36.2252C26.3501 36.6158 26.4165 37.0396 26.4165 37.4966V37.6314C26.4165 38.0884 26.3501 38.5123 26.2173 38.9029C26.0845 39.2935 25.8911 39.6353 25.6372 39.9283C25.3872 40.2173 25.0845 40.4439 24.729 40.608C24.3774 40.7681 23.979 40.8482 23.5337 40.8482C23.0884 40.8482 22.688 40.7681 22.3325 40.608C21.9771 40.4439 21.6724 40.2173 21.4185 39.9283C21.1685 39.6353 20.9771 39.2935 20.8442 38.9029C20.7114 38.5123 20.645 38.0884 20.645 37.6314ZM21.729 37.4966V37.6314C21.729 37.9478 21.7661 38.2466 21.8403 38.5279C21.9146 38.8052 22.0259 39.0513 22.1743 39.2662C22.3267 39.481 22.5161 39.6509 22.7427 39.7759C22.9692 39.897 23.2329 39.9576 23.5337 39.9576C23.8306 39.9576 24.0903 39.897 24.313 39.7759C24.5396 39.6509 24.7271 39.481 24.8755 39.2662C25.0239 39.0513 25.1353 38.8052 25.2095 38.5279C25.2876 38.2466 25.3267 37.9478 25.3267 37.6314V37.4966C25.3267 37.1841 25.2876 36.8892 25.2095 36.6119C25.1353 36.3306 25.022 36.0826 24.8696 35.8677C24.7212 35.649 24.5337 35.4771 24.3071 35.3521C24.0845 35.2271 23.8228 35.1646 23.522 35.1646C23.2251 35.1646 22.9634 35.2271 22.7368 35.3521C22.5142 35.4771 22.3267 35.649 22.1743 35.8677C22.0259 36.0826 21.9146 36.3306 21.8403 36.6119C21.7661 36.8892 21.729 37.1841 21.729 37.4966ZM28.854 35.6509V40.731H27.7642V34.3912H28.7954L28.854 35.6509ZM28.6313 37.3209L28.1274 37.3033C28.1313 36.8697 28.188 36.4693 28.2974 36.1021C28.4067 35.731 28.5688 35.4088 28.7837 35.1353C28.9985 34.8619 29.2661 34.6509 29.5864 34.5025C29.9067 34.3502 30.2778 34.274 30.6997 34.274C30.9966 34.274 31.27 34.317 31.52 34.4029C31.77 34.4849 31.9868 34.6158 32.1704 34.7955C32.354 34.9752 32.4966 35.2056 32.5981 35.4869C32.6997 35.7681 32.7505 36.108 32.7505 36.5064V40.731H31.6665V36.5591C31.6665 36.2271 31.6099 35.9615 31.4966 35.7623C31.3872 35.563 31.231 35.4185 31.0278 35.3287C30.8247 35.2349 30.5864 35.188 30.313 35.188C29.9927 35.188 29.7251 35.2447 29.5103 35.358C29.2954 35.4713 29.1235 35.6275 28.9946 35.8267C28.8657 36.0259 28.772 36.2545 28.7134 36.5123C28.6587 36.7662 28.6313 37.0357 28.6313 37.3209ZM32.7388 36.7232L32.0122 36.9459C32.0161 36.5982 32.0728 36.2642 32.1821 35.9439C32.2954 35.6236 32.4575 35.3384 32.6685 35.0884C32.8833 34.8384 33.147 34.6412 33.4595 34.4966C33.772 34.3482 34.1294 34.274 34.5317 34.274C34.8716 34.274 35.1724 34.3189 35.4341 34.4088C35.6997 34.4986 35.9224 34.6373 36.1021 34.8248C36.2856 35.0084 36.4243 35.2447 36.5181 35.5338C36.6118 35.8228 36.6587 36.1666 36.6587 36.565V40.731H35.5688V36.5533C35.5688 36.1978 35.5122 35.9224 35.3989 35.7271C35.2896 35.5279 35.1333 35.3892 34.9302 35.3111C34.731 35.2291 34.4927 35.188 34.2153 35.188C33.9771 35.188 33.7661 35.2291 33.5825 35.3111C33.3989 35.3931 33.2446 35.5064 33.1196 35.6509C32.9946 35.7916 32.8989 35.9537 32.8325 36.1373C32.77 36.3209 32.7388 36.5162 32.7388 36.7232ZM42.0376 39.647V36.3834C42.0376 36.1334 41.9868 35.9166 41.8853 35.733C41.7876 35.5455 41.6392 35.4009 41.4399 35.2994C41.2407 35.1978 40.9946 35.147 40.7017 35.147C40.4282 35.147 40.188 35.1939 39.981 35.2877C39.7778 35.3814 39.6177 35.5045 39.5005 35.6568C39.3872 35.8091 39.3306 35.9732 39.3306 36.149H38.2466C38.2466 35.9224 38.3052 35.6978 38.4224 35.4752C38.5396 35.2525 38.7075 35.0513 38.9263 34.8716C39.1489 34.688 39.4146 34.5435 39.7231 34.438C40.0356 34.3287 40.3833 34.274 40.7661 34.274C41.2271 34.274 41.6333 34.3521 41.9849 34.5084C42.3403 34.6646 42.6177 34.9009 42.8169 35.2173C43.02 35.5298 43.1216 35.9224 43.1216 36.3951V39.3482C43.1216 39.5591 43.1392 39.7838 43.1743 40.022C43.2134 40.2603 43.27 40.4654 43.3442 40.6373V40.731H42.2134C42.1587 40.606 42.1157 40.44 42.0845 40.233C42.0532 40.022 42.0376 39.8267 42.0376 39.647ZM42.2251 36.8873L42.2368 37.649H41.1411C40.8325 37.649 40.5571 37.6744 40.3149 37.7252C40.0728 37.772 39.8696 37.8443 39.7056 37.942C39.5415 38.0396 39.4165 38.1627 39.3306 38.3111C39.2446 38.4556 39.2017 38.6255 39.2017 38.8209C39.2017 39.0201 39.2466 39.2017 39.3364 39.3658C39.4263 39.5298 39.561 39.6607 39.7407 39.7584C39.9243 39.8521 40.1489 39.899 40.4146 39.899C40.7466 39.899 41.0396 39.8287 41.2935 39.688C41.5474 39.5474 41.7485 39.3755 41.897 39.1724C42.0493 38.9693 42.1313 38.772 42.1431 38.5806L42.606 39.1021C42.5786 39.2662 42.5044 39.4478 42.3833 39.647C42.2622 39.8463 42.1001 40.0377 41.897 40.2213C41.6978 40.4009 41.4595 40.5513 41.1821 40.6724C40.9087 40.7896 40.6001 40.8482 40.2563 40.8482C39.8267 40.8482 39.4497 40.7642 39.1255 40.5963C38.8052 40.4283 38.5552 40.2037 38.3755 39.9224C38.1997 39.6373 38.1118 39.3189 38.1118 38.9673C38.1118 38.6275 38.1782 38.3287 38.311 38.0709C38.4438 37.8091 38.6353 37.5923 38.8853 37.4205C39.1353 37.2447 39.436 37.1119 39.7876 37.022C40.1392 36.9322 40.5317 36.8873 40.9653 36.8873H42.2251ZM45.9106 35.7447V40.731H44.8267V34.3912H45.8521L45.9106 35.7447ZM45.6528 37.3209L45.2017 37.3033C45.2056 36.8697 45.27 36.4693 45.395 36.1021C45.52 35.731 45.6958 35.4088 45.9224 35.1353C46.1489 34.8619 46.4185 34.6509 46.731 34.5025C47.0474 34.3502 47.397 34.274 47.7798 34.274C48.0923 34.274 48.3735 34.317 48.6235 34.4029C48.8735 34.4849 49.0864 34.6177 49.2622 34.8013C49.4419 34.9849 49.5786 35.2232 49.6724 35.5162C49.7661 35.8052 49.813 36.1588 49.813 36.5767V40.731H48.7231V36.565C48.7231 36.233 48.6743 35.9673 48.5767 35.7681C48.479 35.565 48.3364 35.4185 48.1489 35.3287C47.9614 35.2349 47.731 35.188 47.4575 35.188C47.188 35.188 46.9419 35.2447 46.7192 35.358C46.5005 35.4713 46.311 35.6275 46.1509 35.8267C45.9946 36.0259 45.8716 36.2545 45.7817 36.5123C45.6958 36.7662 45.6528 37.0357 45.6528 37.3209Z" fill="#303030"/>
<path d="M2.41 5.42297H0V47H2.41V5.42297Z" fill="white"/>
<path d="M1.91 5.92297H0.5V46.5H1.91V5.92297Z" stroke="#707070"/>
</svg>
